<svg width="35" height="35" viewBox="0 0 35 35" fill="none" xmlns="http://www.w3.org/2000/svg">
<path d="M17.4763 31.9608C15.5001 31.9608 13.6429 31.5856 11.9048 30.8351C10.1667 30.0846 8.65484 29.067 7.36912 27.7822C6.08341 26.4975 5.06579 24.9856 4.31627 23.2465C3.56674 21.5075 3.1915 19.6503 3.19055 17.6751C3.19055 15.6751 3.5596 13.8122 4.29769 12.0865C5.03579 10.3608 6.04769 8.84272 7.33341 7.53225L17.4763 17.6751V3.38939C19.4525 3.38939 21.3096 3.76463 23.0477 4.5151C24.7858 5.26558 26.2977 6.2832 27.5834 7.56796C28.8691 8.85272 29.8872 10.3646 30.6377 12.1037C31.3882 13.8427 31.7629 15.6999 31.762 17.6751C31.761 19.6503 31.3858 21.5075 30.6363 23.2465C29.8867 24.9856 28.8691 26.4975 27.5834 27.7822C26.2977 29.067 24.7858 30.0851 23.0477 30.8365C21.3096 31.588 19.4525 31.9627 17.4763 31.9608Z" fill="#FF834D"/>
</svg>
