<svg width="35" height="35" viewBox="0 0 35 35" fill="none" xmlns="http://www.w3.org/2000/svg">
<path d="M23.6439 18.0323C27.3158 18.0323 30.2958 15.0083 30.2958 11.2823C30.2958 7.55626 27.3158 4.53226 23.6439 4.53226C19.972 4.53226 16.9919 7.55626 16.9919 11.2823C16.9919 15.0083 19.972 18.0323 23.6439 18.0323ZM30.8945 25.5923C30.3757 25.0523 29.7238 24.7823 28.9654 24.7823H19.6527L16.8854 23.7968L17.3245 22.5278L19.6527 23.4323H23.3778C23.8434 23.4323 24.2159 23.2433 24.5219 22.9328C24.8279 22.6223 24.9743 22.2443 24.9743 21.8258C24.9743 21.0968 24.6284 20.5973 23.9365 20.3138L14.2646 16.6823H11.6703V28.8323L20.9831 31.5323L31.6662 27.4823C31.6795 26.7668 31.4134 26.1323 30.8945 25.5923ZM9.0095 16.6823H3.66663V31.5323H9.0095V16.6823Z" fill="#72BBFF"/>
</svg>
